<svg width="24" height="24" fill="none" xmlns="http://www.w3.org/2000/svg"><path d="M17.47.962H6.53a5.576 5.576 0 00-5.57 5.57v10.94a5.576 5.576 0 005.57 5.57h10.94a5.575 5.575 0 005.57-5.57V6.532a5.576 5.576 0 00-5.57-5.57zm3.167 16.51a3.17 3.17 0 01-3.167 3.167H6.53a3.17 3.17 0 01-3.167-3.167V6.532A3.17 3.17 0 016.53 3.365h10.94a3.17 3.17 0 013.167 3.167v10.94z" fill="#fff"/><path d="M17.47.962H6.53a5.576 5.576 0 00-5.57 5.57v10.94a5.576 5.576 0 005.57 5.57h10.94a5.575 5.575 0 005.57-5.57V6.532a5.576 5.576 0 00-5.57-5.57zm3.167 16.51a3.17 3.17 0 01-3.167 3.167H6.53a3.17 3.17 0 01-3.167-3.167V6.532A3.17 3.17 0 016.53 3.365h10.94a3.17 3.17 0 013.167 3.167v10.94z" fill="#fff"/><path d="M17.87 7.491a1.347 1.347 0 01-1.347-1.345 1.347 1.347 0 012.692 0c0 .742-.604 1.345-1.346 1.345z" fill="#fff"/><path d="M17.87 7.491a1.347 1.347 0 01-1.347-1.345 1.347 1.347 0 012.692 0c0 .742-.604 1.345-1.346 1.345zM12 6.315a5.693 5.693 0 00-5.687 5.687A5.693 5.693 0 0012 17.688a5.693 5.693 0 005.687-5.686A5.693 5.693 0 0012 6.315zm0 8.971a3.288 3.288 0 01-3.284-3.284A3.288 3.288 0 0112 8.719a3.287 3.287 0 013.284 3.283A3.288 3.288 0 0112 15.286z" fill="#fff"/><path d="M12 6.315a5.693 5.693 0 00-5.687 5.687A5.693 5.693 0 0012 17.688a5.693 5.693 0 005.687-5.686A5.693 5.693 0 0012 6.315zm0 8.971a3.288 3.288 0 01-3.284-3.284A3.288 3.288 0 0112 8.719a3.287 3.287 0 013.284 3.283A3.288 3.288 0 0112 15.286z" fill="#fff"/></svg>