<svg width="24" height="24" fill="none" xmlns="http://www.w3.org/2000/svg"><path d="M1.756 12c0 5.659 4.586 10.245 10.243 10.245.544 0 1.078-.042 1.6-.125a6.192 6.192 0 008.52-8.522c.082-.52.125-1.054.125-1.598 0-5.66-4.586-10.246-10.244-10.246-.544 0-1.078.045-1.6.126a6.191 6.191 0 00-8.52 8.521c-.08.523-.124 1.054-.124 1.6zm12.512 1.832c-.273-.26-.626-.457-1.063-.594a18.895 18.895 0 00-1.766-.443c-.99-.216-1.82-.467-2.492-.758-.672-.29-1.207-.686-1.604-1.188-.398-.505-.595-1.135-.595-1.88 0-.71.21-1.346.628-1.899.419-.555 1.025-.98 1.815-1.274.787-.296 1.714-.444 2.777-.444.848 0 1.584.097 2.205.294.62.196 1.137.456 1.55.782.41.326.713.669.904 1.03.192.36.287.713.287 1.057 0 .32-.123.611-.365.865a1.208 1.208 0 01-.912.383c-.326 0-.58-.074-.758-.233-.173-.155-.354-.399-.55-.74-.248-.476-.544-.847-.89-1.113-.335-.26-.89-.396-1.66-.395-.715 0-1.285.147-1.716.432-.434.29-.641.625-.642 1.02a.98.98 0 00.214.632c.145.18.348.335.606.467.26.133.524.236.789.31.268.076.714.186 1.332.331.775.168 1.48.355 2.112.559.631.204 1.17.451 1.615.745.448.293.799.667 1.05 1.118.251.452.375 1.005.375 1.654a3.596 3.596 0 01-.65 2.11c-.434.624-1.07 1.112-1.902 1.461-.834.353-1.819.527-2.957.527-1.364 0-2.492-.238-3.384-.72a4.368 4.368 0 01-1.54-1.386c-.397-.577-.597-1.143-.597-1.695 0-.324.125-.607.366-.838.244-.233.558-.35.93-.35.304 0 .564.092.777.274.21.181.388.444.532.792.173.404.363.74.563 1.009.199.266.479.487.842.66.36.175.838.261 1.436.261.819 0 1.48-.176 1.986-.526.509-.352.753-.781.753-1.3 0-.414-.132-.742-.401-.997z" fill="#fff"/></svg>