<svg width="24" height="18" fill="none" xmlns="http://www.w3.org/2000/svg"><path d="M.959 15.937a12.82 12.82 0 006.945 2.036c8.333 0 12.89-6.903 12.89-12.89 0-.197-.005-.392-.013-.587a9.2 9.2 0 002.26-2.345 9.056 9.056 0 01-2.602.714A4.544 4.544 0 0022.431.358a9.072 9.072 0 01-2.877 1.1 4.53 4.53 0 00-7.72 4.132A12.862 12.862 0 012.496.856a4.51 4.51 0 00-.613 2.278c0 1.571.8 2.958 2.015 3.77a4.512 4.512 0 01-2.052-.566v.057a4.533 4.533 0 003.634 4.442 4.547 4.547 0 01-2.046.078 4.535 4.535 0 004.232 3.146A9.09 9.09 0 012.04 16c-.366 0-.727-.022-1.081-.064z" fill="#fff"/></svg>