<svg width="22" height="13" fill="none" xmlns="http://www.w3.org/2000/svg"><path d="M4.173 8.94c.85 1.202 1.826 2.264 3.086 3.016 1.428.852 2.965 1.109 4.586 1.03.757-.037.985-.244 1.02-1.031.024-.54.083-1.079.338-1.564.25-.475.63-.565 1.067-.27.218.15.402.337.576.538.426.486.84.99 1.282 1.46.555.59 1.214.939 2.041.868l3.204.001c.516-.036.784-.696.488-1.3-.208-.42-.482-.794-.771-1.157-.655-.822-1.427-1.521-2.156-2.264-.658-.67-.7-1.06-.171-1.833.578-.845 1.198-1.656 1.78-2.497.544-.785 1.101-1.568 1.386-2.507.182-.6.02-.864-.565-.97-.102-.017-.207-.017-.31-.017L17.567.438c-.429-.007-.665.19-.817.587a22.417 22.417 0 01-.662 1.59c-.553 1.176-1.172 2.312-2.039 3.273-.192.212-.404.48-.724.37-.399-.152-.517-.84-.51-1.072L12.812.984c-.078-.599-.206-.867-.777-.984h-3.62c-.483 0-.726.196-.985.511-.147.183-.193.3.113.362.6.118.94.525 1.03 1.153.143 1.006.133 2.016.05 3.025a2.91 2.91 0 01-.184.863c-.175.434-.459.521-.83.254-.334-.24-.57-.58-.803-.921-.869-1.282-1.561-2.663-2.127-4.115-.162-.42-.445-.673-.87-.68a84.778 84.778 0 00-3.139 0C.042.466-.146.785.112 1.38 1.25 4.026 2.518 6.598 4.173 8.94z" fill="#fff"/></svg>