<svg width="53" height="73" fill="none" xmlns="http://www.w3.org/2000/svg"><g clip-path="url(#clip0)" filter="url(#filter0_d)"><path d="M15.493 35.643l20.285-20.285a1.213 1.213 0 011.721 0 1.213 1.213 0 010 1.721L18.079 36.5l19.42 19.42a1.213 1.213 0 010 1.72c-.234.235-.55.361-.856.361-.306 0-.622-.117-.856-.36L15.502 37.355a1.21 1.21 0 01-.009-1.712z" fill="#fff"/></g><defs><clipPath id="clip0"><path fill="#fff" transform="matrix(-1 0 0 1 48 15)" d="M0 0h43v43H0z"/></clipPath><filter id="filter0_d" x="-10" y="0" width="73" height="73" filterUnits="userSpaceOnUse" color-interpolation-filters="sRGB"><feFlood flood-opacity="0" result="BackgroundImageFix"/><feColorMatrix in="SourceAlpha" values="0 0 0 0 0 0 0 0 0 0 0 0 0 0 0 0 0 0 127 0"/><feOffset/><feGaussianBlur stdDeviation="7.5"/><feColorMatrix values="0 0 0 0 1 0 0 0 0 1 0 0 0 0 1 0 0 0 0.67 0"/><feBlend in2="BackgroundImageFix" result="effect1_dropShadow"/><feBlend in="SourceGraphic" in2="effect1_dropShadow" result="shape"/></filter></defs></svg>